<mxfile host="app.diagrams.net" modified="2020-09-09T05:57:34.432Z" agent="5.0 (Windows NT 10.0; Win64; x64) AppleWebKit/537.36 (KHTML, like Gecko) Chrome/85.0.4183.83 Safari/537.36" etag="MsMhfP1yH35izS2xGxmz" version="13.6.9" type="github">
  <diagram id="kgpKYQtTHZ0yAKxKKP6v" name="Page-1">
    <mxGraphModel dx="1422" dy="794" grid="1" gridSize="10" guides="1" tooltips="1" connect="1" arrows="1" fold="1" page="1" pageScale="1" pageWidth="850" pageHeight="1100" math="0" shadow="0">
      <root>
        <mxCell id="0" />
        <mxCell id="1" parent="0" />
        <mxCell id="1vematbYPJLGRJVCrZ_m-1" value="" style="points=[];perimeter=orthogonalPerimeter;rounded=0;shadow=0;strokeWidth=1;fontSize=14;" vertex="1" parent="1">
          <mxGeometry x="75" y="270" width="10" height="85" as="geometry" />
        </mxCell>
        <mxCell id="1vematbYPJLGRJVCrZ_m-2" value="start " style="verticalAlign=bottom;startArrow=oval;endArrow=block;startSize=8;shadow=0;strokeWidth=1;fontSize=14;" edge="1" parent="1">
          <mxGeometry x="0.1667" relative="1" as="geometry">
            <mxPoint x="15" y="150" as="sourcePoint" />
            <mxPoint as="offset" />
            <mxPoint x="79.5" y="150" as="targetPoint" />
          </mxGeometry>
        </mxCell>
        <mxCell id="1vematbYPJLGRJVCrZ_m-3" value="" style="points=[];perimeter=orthogonalPerimeter;rounded=0;shadow=0;strokeWidth=1;fontSize=14;" vertex="1" parent="1">
          <mxGeometry x="75" y="390" width="10" height="75" as="geometry" />
        </mxCell>
        <mxCell id="1vematbYPJLGRJVCrZ_m-4" value="" style="points=[];perimeter=orthogonalPerimeter;rounded=0;shadow=0;strokeWidth=1;fontSize=14;" vertex="1" parent="1">
          <mxGeometry x="75" y="140" width="10" height="85" as="geometry" />
        </mxCell>
        <mxCell id="1vematbYPJLGRJVCrZ_m-5" value="" style="points=[];perimeter=orthogonalPerimeter;rounded=0;shadow=0;strokeWidth=1;fontSize=14;" vertex="1" parent="1">
          <mxGeometry x="385" y="272.5" width="10" height="80" as="geometry" />
        </mxCell>
        <mxCell id="1vematbYPJLGRJVCrZ_m-6" value="" style="points=[];perimeter=orthogonalPerimeter;rounded=0;shadow=0;strokeWidth=1;fontSize=14;" vertex="1" parent="1">
          <mxGeometry x="385" y="385" width="10" height="80" as="geometry" />
        </mxCell>
        <mxCell id="1vematbYPJLGRJVCrZ_m-7" value="" style="points=[];perimeter=orthogonalPerimeter;rounded=0;shadow=0;strokeWidth=1;fontSize=14;" vertex="1" parent="1">
          <mxGeometry x="385" y="140" width="10" height="80" as="geometry" />
        </mxCell>
        <mxCell id="1vematbYPJLGRJVCrZ_m-8" value="param value" style="verticalAlign=bottom;endArrow=open;dashed=1;endSize=8;shadow=0;strokeWidth=1;fontSize=14;" edge="1" parent="1">
          <mxGeometry x="-0.0056" relative="1" as="geometry">
            <mxPoint x="79.5" y="352.5" as="targetPoint" />
            <mxPoint x="389.5" y="352.5" as="sourcePoint" />
            <Array as="points">
              <mxPoint x="260" y="352.5" />
            </Array>
            <mxPoint as="offset" />
          </mxGeometry>
        </mxCell>
        <mxCell id="1vematbYPJLGRJVCrZ_m-9" value="Check có chạy fix lỗi không =&gt;  getParam" style="verticalAlign=bottom;endArrow=block;entryX=0;entryY=0;shadow=0;strokeWidth=1;fontSize=14;" edge="1" parent="1" source="1vematbYPJLGRJVCrZ_m-1" target="1vematbYPJLGRJVCrZ_m-5">
          <mxGeometry relative="1" as="geometry">
            <mxPoint x="275" y="282.5" as="sourcePoint" />
            <mxPoint as="offset" />
          </mxGeometry>
        </mxCell>
        <mxCell id="1vematbYPJLGRJVCrZ_m-10" value="&lt;div&gt;param&amp;nbsp;PARAM_CODE_UPDATE_EE_DATE&amp;nbsp;&lt;/div&gt;- 0, null, empty, error&amp;nbsp; &amp;nbsp; &amp;nbsp; &amp;nbsp; kết thúc tiến trình và ngủ sau đó quay lại start&lt;div style=&quot;font-size: 14px&quot;&gt;- 1&amp;nbsp; &amp;nbsp; &amp;nbsp; &amp;nbsp; tiếp tục thực hiện tiến trình&lt;/div&gt;" style="text;html=1;strokeColor=none;fillColor=none;align=left;verticalAlign=middle;whiteSpace=wrap;rounded=0;fontSize=14;" vertex="1" parent="1">
          <mxGeometry x="400" y="287.5" width="330" height="62.5" as="geometry" />
        </mxCell>
        <mxCell id="1vematbYPJLGRJVCrZ_m-11" value="Lấy whitelist để test =&gt; getParam" style="verticalAlign=bottom;endArrow=block;shadow=0;strokeWidth=1;fontSize=14;" edge="1" parent="1" target="1vematbYPJLGRJVCrZ_m-6">
          <mxGeometry x="-0.0476" relative="1" as="geometry">
            <mxPoint x="80" y="387" as="sourcePoint" />
            <mxPoint x="380" y="387" as="targetPoint" />
            <mxPoint as="offset" />
          </mxGeometry>
        </mxCell>
        <mxCell id="1vematbYPJLGRJVCrZ_m-12" value="param value" style="verticalAlign=bottom;endArrow=open;dashed=1;endSize=8;shadow=0;strokeWidth=1;fontSize=14;" edge="1" parent="1">
          <mxGeometry x="0.1773" y="-20" relative="1" as="geometry">
            <mxPoint x="80" y="465" as="targetPoint" />
            <mxPoint x="390" y="465" as="sourcePoint" />
            <Array as="points">
              <mxPoint x="260.5" y="465" />
            </Array>
            <mxPoint x="20" y="16" as="offset" />
          </mxGeometry>
        </mxCell>
        <mxCell id="1vematbYPJLGRJVCrZ_m-13" value="CheckconnectToDb" style="verticalAlign=bottom;endArrow=block;entryX=0.5;entryY=0;shadow=0;strokeWidth=1;entryDx=0;entryDy=0;entryPerimeter=0;fontSize=14;" edge="1" parent="1" target="1vematbYPJLGRJVCrZ_m-7">
          <mxGeometry relative="1" as="geometry">
            <mxPoint x="79.5" y="140" as="sourcePoint" />
            <mxPoint x="380" y="140" as="targetPoint" />
            <mxPoint as="offset" />
          </mxGeometry>
        </mxCell>
        <mxCell id="1vematbYPJLGRJVCrZ_m-14" value="result " style="verticalAlign=bottom;endArrow=open;dashed=1;endSize=8;shadow=0;strokeWidth=1;fontSize=14;" edge="1" parent="1">
          <mxGeometry x="0.0588" relative="1" as="geometry">
            <mxPoint x="79.5" y="220" as="targetPoint" />
            <mxPoint x="390" y="220" as="sourcePoint" />
            <Array as="points" />
            <mxPoint as="offset" />
          </mxGeometry>
        </mxCell>
        <mxCell id="1vematbYPJLGRJVCrZ_m-15" value="câu lệnh sql &quot;select 1 from dual&quot;&lt;br style=&quot;font-size: 14px;&quot;&gt;result != null&amp;nbsp; &amp;nbsp;tiếp tục thực hiện tiến trình&lt;br style=&quot;font-size: 14px;&quot;&gt;error&amp;nbsp; &amp;nbsp; &amp;nbsp; &amp;nbsp; &amp;nbsp; &amp;nbsp; &amp;nbsp; &amp;nbsp;kết thúc tiến trình và ngủ sau&amp;nbsp; &amp;nbsp; &amp;nbsp; &amp;nbsp; &amp;nbsp; &amp;nbsp; &amp;nbsp; &amp;nbsp; &amp;nbsp; &amp;nbsp; &amp;nbsp; &amp;nbsp; &amp;nbsp;đó quay lại start" style="text;html=1;strokeColor=none;fillColor=none;align=left;verticalAlign=middle;whiteSpace=wrap;rounded=0;fontSize=14;" vertex="1" parent="1">
          <mxGeometry x="400" y="150" width="280" height="60" as="geometry" />
        </mxCell>
        <mxCell id="1vematbYPJLGRJVCrZ_m-16" value="Tiến trình" style="shape=umlLifeline;perimeter=lifelinePerimeter;container=1;collapsible=0;recursiveResize=0;rounded=0;shadow=0;strokeWidth=1;fontSize=14;" vertex="1" parent="1">
          <mxGeometry x="30" y="80" width="100" height="1370" as="geometry" />
        </mxCell>
        <mxCell id="1vematbYPJLGRJVCrZ_m-17" value="" style="points=[];perimeter=orthogonalPerimeter;rounded=0;shadow=0;strokeWidth=1;fontSize=14;" vertex="1" parent="1vematbYPJLGRJVCrZ_m-16">
          <mxGeometry x="45" y="190" width="10" height="85" as="geometry" />
        </mxCell>
        <mxCell id="1vematbYPJLGRJVCrZ_m-18" value="start " style="verticalAlign=bottom;startArrow=oval;endArrow=block;startSize=8;shadow=0;strokeWidth=1;fontSize=14;" edge="1" parent="1vematbYPJLGRJVCrZ_m-16" target="1vematbYPJLGRJVCrZ_m-16">
          <mxGeometry x="0.1667" relative="1" as="geometry">
            <mxPoint x="-15" y="70" as="sourcePoint" />
            <mxPoint as="offset" />
          </mxGeometry>
        </mxCell>
        <mxCell id="1vematbYPJLGRJVCrZ_m-19" value="" style="points=[];perimeter=orthogonalPerimeter;rounded=0;shadow=0;strokeWidth=1;fontSize=14;" vertex="1" parent="1vematbYPJLGRJVCrZ_m-16">
          <mxGeometry x="45" y="405" width="10" height="50" as="geometry" />
        </mxCell>
        <mxCell id="1vematbYPJLGRJVCrZ_m-20" value="" style="points=[];perimeter=orthogonalPerimeter;rounded=0;shadow=0;strokeWidth=1;fontSize=14;" vertex="1" parent="1vematbYPJLGRJVCrZ_m-16">
          <mxGeometry x="45" y="310" width="10" height="75" as="geometry" />
        </mxCell>
        <mxCell id="1vematbYPJLGRJVCrZ_m-21" value="" style="points=[];perimeter=orthogonalPerimeter;rounded=0;shadow=0;strokeWidth=1;fontSize=14;" vertex="1" parent="1vematbYPJLGRJVCrZ_m-16">
          <mxGeometry x="45" y="60" width="10" height="85" as="geometry" />
        </mxCell>
        <mxCell id="1vematbYPJLGRJVCrZ_m-22" value="DB &#xa;BCCS" style="shape=umlLifeline;perimeter=lifelinePerimeter;container=1;collapsible=0;recursiveResize=0;rounded=0;shadow=0;strokeWidth=1;fontSize=14;" vertex="1" parent="1">
          <mxGeometry x="340" y="80" width="100" height="1370" as="geometry" />
        </mxCell>
        <mxCell id="1vematbYPJLGRJVCrZ_m-23" value="" style="points=[];perimeter=orthogonalPerimeter;rounded=0;shadow=0;strokeWidth=1;fontSize=14;" vertex="1" parent="1vematbYPJLGRJVCrZ_m-22">
          <mxGeometry x="45" y="192.5" width="10" height="80" as="geometry" />
        </mxCell>
        <mxCell id="1vematbYPJLGRJVCrZ_m-24" value="" style="points=[];perimeter=orthogonalPerimeter;rounded=0;shadow=0;strokeWidth=1;fontSize=14;" vertex="1" parent="1vematbYPJLGRJVCrZ_m-22">
          <mxGeometry x="45" y="305" width="10" height="80" as="geometry" />
        </mxCell>
        <mxCell id="1vematbYPJLGRJVCrZ_m-25" value="" style="points=[];perimeter=orthogonalPerimeter;rounded=0;shadow=0;strokeWidth=1;fontSize=14;" vertex="1" parent="1vematbYPJLGRJVCrZ_m-22">
          <mxGeometry x="45" y="60" width="10" height="80" as="geometry" />
        </mxCell>
        <mxCell id="1vematbYPJLGRJVCrZ_m-26" value="" style="points=[];perimeter=orthogonalPerimeter;rounded=0;shadow=0;strokeWidth=1;fontSize=14;" vertex="1" parent="1vematbYPJLGRJVCrZ_m-22">
          <mxGeometry x="45" y="595.25" width="10" height="39.5" as="geometry" />
        </mxCell>
        <mxCell id="1vematbYPJLGRJVCrZ_m-27" value="" style="points=[];perimeter=orthogonalPerimeter;rounded=0;shadow=0;strokeWidth=1;fontSize=14;" vertex="1" parent="1vematbYPJLGRJVCrZ_m-22">
          <mxGeometry x="45" y="960" width="10" height="90" as="geometry" />
        </mxCell>
        <mxCell id="1vematbYPJLGRJVCrZ_m-28" value="" style="points=[];perimeter=orthogonalPerimeter;rounded=0;shadow=0;strokeWidth=1;fontSize=14;" vertex="1" parent="1vematbYPJLGRJVCrZ_m-22">
          <mxGeometry x="48" y="1180" width="10" height="80" as="geometry" />
        </mxCell>
        <mxCell id="1vematbYPJLGRJVCrZ_m-29" value="" style="points=[];perimeter=orthogonalPerimeter;rounded=0;shadow=0;strokeWidth=1;fontSize=14;" vertex="1" parent="1vematbYPJLGRJVCrZ_m-22">
          <mxGeometry x="48" y="760" width="10" height="39.5" as="geometry" />
        </mxCell>
        <mxCell id="1vematbYPJLGRJVCrZ_m-30" value="param PARAM_CODE_WHITE_LIST_ERR_DATE&lt;br style=&quot;font-size: 14px&quot;&gt;- null, error&amp;nbsp; &amp;nbsp; &amp;nbsp; &amp;nbsp; &amp;nbsp;kết thúc tiến trình và ngủ sau đó =&amp;gt; start&lt;br style=&quot;font-size: 14px&quot;&gt;- empty&amp;nbsp; &amp;nbsp; &amp;nbsp; &amp;nbsp; &amp;nbsp; &amp;nbsp; &amp;nbsp; Tiếp tục thực hiện&lt;br&gt;- &amp;lt;list CTS&amp;gt;&amp;nbsp; &amp;nbsp; &amp;nbsp; &amp;nbsp;Có giá trị trong whilelist =&amp;gt; tiếp tục thực hiện tiến trình" style="text;whiteSpace=wrap;html=1;fontSize=14;" vertex="1" parent="1">
          <mxGeometry x="400" y="380" width="510" height="85" as="geometry" />
        </mxCell>
      </root>
    </mxGraphModel>
  </diagram>
</mxfile>
